<?xml version="1.0" standalone="no"?>
<!DOCTYPE svg PUBLIC "-//W3C//DTD SVG 20010904//EN"
 "http://www.w3.org/TR/2001/REC-SVG-20010904/DTD/svg10.dtd">
<svg version="1.0" xmlns="http://www.w3.org/2000/svg"
 width="1980.000000pt" height="660.000000pt" viewBox="0 0 1980.000000 660.000000"
 preserveAspectRatio="xMidYMid meet">

<g transform="translate(0.000000,660.000000) scale(0.100000,-0.100000)"
fill="#000000" stroke="none">
<path d="M500 4711 c0 -29 85 -190 127 -242 56 -68 159 -148 243 -188 l75 -36
415 -5 c228 -3 421 -9 428 -13 9 -6 12 -213 12 -978 l0 -969 235 0 235 0 0
975 c0 536 1 976 3 977 1 1 191 5 422 8 l420 5 85 41 c102 49 195 124 257 207
47 63 113 193 113 221 0 14 -149 16 -1535 16 -1512 0 -1535 0 -1535 -19z"/>
<path d="M4755 4708 c4 -13 25 -59 46 -103 72 -150 178 -253 335 -327 l69 -33
951 0 951 0 84 42 c97 48 168 105 232 183 49 59 114 180 123 229 l7 31 -1402
0 -1402 0 6 -22z"/>
<path d="M8940 4000 l0 -720 1095 0 1095 0 0 -260 0 -260 -863 0 c-957 0 -890
4 -1027 -65 -188 -94 -313 -210 -419 -387 l-23 -38 1396 0 1396 0 0 740 0 740
-1095 0 -1095 0 0 250 0 250 856 0 856 0 83 39 c116 54 191 108 270 193 61 65
135 190 135 227 0 8 -395 11 -1330 11 l-1330 0 0 -720z"/>
<path d="M12970 3495 l0 -1225 1085 0 1086 0 47 24 c172 88 291 225 353 403
l18 53 -1065 0 -1064 0 0 985 0 985 -230 0 -230 0 0 -1225z"/>
<path d="M16535 4676 c53 -175 231 -357 409 -416 62 -20 73 -20 997 -18 l934
3 75 36 c91 44 180 112 238 182 41 50 132 219 132 245 0 9 -291 12 -1399 12
l-1399 0 13 -44z"/>
<path d="M4766 3708 c61 -173 194 -317 370 -400 l69 -33 951 0 951 0 84 42
c100 50 170 106 237 190 48 59 104 163 118 217 l6 26 -1400 0 -1401 0 15 -42z"/>
<path d="M16590 3010 l0 -740 233 2 232 3 3 493 2 492 870 0 870 0 0 -495 0
-495 230 0 230 0 -2 738 -3 737 -1332 3 -1333 2 0 -740z"/>
<path d="M4760 2733 c55 -184 209 -352 393 -431 l62 -27 940 0 940 0 61 26
c151 65 278 186 350 334 24 50 44 99 44 108 0 16 -88 17 -1399 17 l-1400 0 9
-27z"/>
</g>
</svg>
